<svg viewBox="0 0 200 200" xmlns="http://www.w3.org/2000/svg">
  <!-- Background Circle -->
  <circle cx="100" cy="100" r="95" fill="url(#bgGradient)" />
  
  <!-- Stopwatch Body -->
  <circle cx="100" cy="110" r="65" fill="#1e293b" stroke="#334155" stroke-width="3"/>
  <circle cx="100" cy="110" r="60" fill="url(#watchGradient)" />
  
  <!-- Inner Circle -->
  <circle cx="100" cy="110" r="55" fill="#0f172a" stroke="#1e293b" stroke-width="1"/>
  
  <!-- Top Button/Crown -->
  <rect x="92" y="35" width="16" height="20" rx="3" fill="#64748b"/>
  <rect x="95" y="30" width="10" height="10" rx="2" fill="#94a3b8"/>
  
  <!-- Side Button -->
  <rect x="155" y="85" width="12" height="25" rx="4" fill="#64748b"/>
  
  <!-- Connection piece -->
  <rect x="95" y="45" width="10" height="15" fill="#475569"/>
  
  <!-- Clock Markers -->
  <!-- 12 o'clock -->
  <rect x="98" y="58" width="4" height="12" rx="1" fill="#94a3b8"/>
  <!-- 3 o'clock -->
  <rect x="147" y="108" width="12" height="4" rx="1" fill="#94a3b8"/>
  <!-- 6 o'clock -->
  <rect x="98" y="150" width="4" height="12" rx="1" fill="#94a3b8"/>
  <!-- 9 o'clock -->
  <rect x="41" y="108" width="12" height="4" rx="1" fill="#94a3b8"/>
  
  <!-- Small markers -->
  <circle cx="125" cy="70" r="2" fill="#64748b"/>
  <circle cx="140" cy="85" r="2" fill="#64748b"/>
  <circle cx="140" cy="135" r="2" fill="#64748b"/>
  <circle cx="125" cy="150" r="2" fill="#64748b"/>
  <circle cx="75" cy="150" r="2" fill="#64748b"/>
  <circle cx="60" cy="135" r="2" fill="#64748b"/>
  <circle cx="60" cy="85" r="2" fill="#64748b"/>
  <circle cx="75" cy="70" r="2" fill="#64748b"/>
  
  <!-- Clock Hands -->
  <!-- Minute hand (longer) -->
  <line x1="100" y1="110" x2="100" y2="75" stroke="#3b82f6" stroke-width="3" stroke-linecap="round"/>
  <!-- Second hand (thin, red) -->
  <line x1="100" y1="110" x2="125" y2="135" stroke="#ef4444" stroke-width="2" stroke-linecap="round"/>
  
  <!-- Center dot -->
  <circle cx="100" cy="110" r="5" fill="#e2e8f0"/>
  <circle cx="100" cy="110" r="3" fill="#1e293b"/>
  
  <!-- Highlight/Shine effect -->
  <ellipse cx="100" cy="85" rx="35" ry="20" fill="url(#shineGradient)" opacity="0.3"/>
  
  <!-- Gradients -->
  <defs>
    <linearGradient id="bgGradient" x1="0%" y1="0%" x2="100%" y2="100%">
      <stop offset="0%" style="stop-color:#3b82f6;stop-opacity:1" />
      <stop offset="100%" style="stop-color:#6366f1;stop-opacity:1" />
    </linearGradient>
    
    <linearGradient id="watchGradient" x1="0%" y1="0%" x2="0%" y2="100%">
      <stop offset="0%" style="stop-color:#1e293b;stop-opacity:1" />
      <stop offset="100%" style="stop-color:#0f172a;stop-opacity:1" />
    </linearGradient>
    
    <linearGradient id="shineGradient" x1="0%" y1="0%" x2="0%" y2="100%">
      <stop offset="0%" style="stop-color:#ffffff;stop-opacity:0.4" />
      <stop offset="100%" style="stop-color:#ffffff;stop-opacity:0" />
    </linearGradient>
  </defs>
</svg>